<svg width="40" height="40" viewBox="0 0 40 40" fill="none" xmlns="http://www.w3.org/2000/svg">
<path d="M20 21.6667C22.7614 21.6667 25 19.4282 25 16.6667C25 13.9053 22.7614 11.6667 20 11.6667C17.2386 11.6667 15 13.9053 15 16.6667C15 19.4282 17.2386 21.6667 20 21.6667Z" stroke="white" stroke-width="2" stroke-linecap="round" stroke-linejoin="round"/>
<path d="M20 3.33337C16.4638 3.33337 13.0724 4.73813 10.5719 7.23862C8.07141 9.7391 6.66666 13.1305 6.66666 16.6667C6.66666 19.82 7.33666 21.8834 9.16666 24.1667L20 36.6667L30.8333 24.1667C32.6633 21.8834 33.3333 19.82 33.3333 16.6667C33.3333 13.1305 31.9286 9.7391 29.4281 7.23862C26.9276 4.73813 23.5362 3.33337 20 3.33337V3.33337Z" stroke="white" stroke-width="2" stroke-linecap="round" stroke-linejoin="round"/>
</svg>
