<svg width="30" height="30" viewBox="0 0 30 30" fill="none" xmlns="http://www.w3.org/2000/svg">
<g clip-path="url(#clip0_1_140)">
<path d="M15 3.75001C16.761 3.74962 18.4976 4.16267 20.0699 4.9559C21.6421 5.74914 23.0062 6.90041 24.0524 8.31706C25.0985 9.73371 25.7974 11.3762 26.0929 13.1122C26.3885 14.8483 26.2723 16.6295 25.7537 18.3125C26.2239 19.3539 26.3657 20.5137 26.1604 21.6377C25.9551 22.7617 25.4124 23.7965 24.6044 24.6045C23.7965 25.4124 22.7617 25.9551 21.6377 26.1604C20.5137 26.3657 19.3539 26.2239 18.3125 25.7538C16.3572 26.3569 14.2745 26.4153 12.2884 25.9228C10.3024 25.4303 8.48832 24.4054 7.04145 22.9585C5.59457 21.5117 4.56971 19.6976 4.07718 17.7116C3.58464 15.7255 3.64309 13.6428 4.24623 11.6875C3.7757 10.6461 3.63353 9.48603 3.83866 8.36179C4.04379 7.23756 4.58648 6.20247 5.39449 5.39432C6.2025 4.58618 7.2375 4.04331 8.3617 3.83799C9.4859 3.63267 10.646 3.77465 11.6875 4.24501C12.7607 3.91541 13.8773 3.74856 15 3.75001V3.75001Z" stroke="white" stroke-width="2.5" stroke-linecap="round" stroke-linejoin="round"/>
<path d="M10 18.125C10.625 20.625 12.9475 21.25 15 21.25C18.6312 21.25 20 19.7662 20 18.125C20 16.2462 17.5912 15 15 15C12.4088 15 10 13.7538 10 11.875C10 10.2338 11.3688 8.75 15 8.75C17.0525 8.75 19.375 9.375 20 11.875" stroke="white" stroke-width="2.5" stroke-linecap="round" stroke-linejoin="round"/>
</g>
<defs>
<clipPath id="clip0_1_140">
<rect width="30" height="30" fill="white"/>
</clipPath>
</defs>
</svg>
